<?xml version="1.0" encoding="UTF-8"?>
<svg id="Layer_1" xmlns="http://www.w3.org/2000/svg" version="1.1" viewBox="0 0 445 201.93">
  <!-- Generator: Adobe Illustrator 30.1.0, SVG Export Plug-In . SVG Version: 2.1.1 Build 136)  -->
  <defs>
    <style>
      .st0 {
        fill: #fff;
      }

      .st1 {
        fill: #0054a6;
      }

      .st2 {
        fill: #b3b3b3;
      }
    </style>
  </defs>
  <path class="st0" d="M17.97,177.75c-.61-.22-1.26-.33-1.93-.33-.85,0-1.8.05-2.87.17-.17.03-.42.05-.7.11l-4.1,16.46c2.07-.24,3.56-.38,4.45-.38,1.45,0,2.15.81,2.15,2.41-.81-.21-1.67-.33-2.56-.33s-1.91.06-3.15.21l-3.74.41c-1.34.13-2.3.24-2.85.22-.9,0-1.59-.21-1.97-.52-.37-.35-.6-1-.7-1.95.81.37,1.61.54,2.45.54.44,0,1.26-.06,2.32-.19l4.15-16.5c-1.18.13-2.24.2-3.11.2-1.51,0-2.27-.69-2.27-2.09.43.22,1.01.33,1.61.33.81,0,1.97-.11,3.49-.32l2.61-.41c1.79-.28,3.18-.41,4.15-.39,1.49,0,2.33.8,2.57,2.36h0ZM44.65,191.76c-1.27,1.19-2.32,1.81-3.26,1.81-.65,0-1.07-.37-1.32-1.07-.23-.69-.34-1.99-.34-3.83v-1.61c0-3.88-1.22-5.83-3.67-5.84-3.1,0-6.61,3.32-10.53,9.92l.46-3.69c.02-.24.04-.51.09-.79.16-1.29.26-2.17.26-2.71,0-.99-.45-1.5-1.29-1.51-.42,0-.95.1-1.67.27-.53.14-.91.26-1.13.33.52.55.79,1.27.79,2.22,0,.65-.1,1.62-.27,2.81l-.37,2.89c-.28,2.24-.44,3.52-.44,3.81,0,.96.57,1.47,1.68,1.47.45,0,.97-.13,1.62-.33-.17-.18-.21-.41-.21-.58,0-.55.42-1.36,1.24-2.55.24-.35.76-1.05,1.56-2.22,3.24-4.63,5.57-6.93,7.02-6.93.57,0,.95.29,1.19.87.24.58.38,1.62.38,3.05v1.13c0,2.67.29,4.53.84,5.66.58,1.07,1.57,1.62,2.95,1.62,1.55,0,3.26-.89,5.2-2.64,1.91-1.77,4.08-4.49,6.53-8.13l-1.42-.67c-2.71,3.63-4.69,6.06-5.88,7.26v-.02ZM73.19,176.49c-.86-.31-1.99-.51-3.32-.51-2.57-.02-4.67.55-6.35,1.61-1.64,1.11-2.47,2.5-2.47,4.2,0,1.44,1.15,3.03,3.48,4.78l1.81,1.35c2.51,1.87,3.77,3.31,3.77,4.38s-.56,1.87-1.71,2.59c-1.15.77-2.47,1.1-4.02,1.1-1.75,0-3.09-.42-4.1-1.23-.97-.8-1.47-1.92-1.47-3.36-1.49.87-2.25,1.67-2.25,2.41,0,1.05.62,1.93,1.84,2.65,1.24.69,2.79,1.06,4.68,1.06,2.83.02,5.17-.58,7.01-1.83,1.86-1.17,2.79-2.73,2.79-4.61,0-1.59-1.34-3.38-4.08-5.44l-1.49-1.06c-1.59-1.17-2.51-1.9-2.82-2.26-.31-.33-.45-.85-.45-1.51,0-.96.46-1.77,1.38-2.47.92-.63,2.08-.97,3.43-.97,2.17,0,3.7.76,4.67,2.23.61-.67.91-1.3.91-1.78,0-.52-.43-.98-1.24-1.32h0ZM142.89,182.92c0,.61-.83,1.45-2.5,2.44-.42-.68-1.03-1.04-1.79-1.06-1.41,0-3.19,1.22-5.37,3.61-1.35,1.48-2.52,3.02-3.52,4.58-.99,1.57-1.48,2.72-1.48,3.36v.24c-.75.25-1.34.39-1.81.39-1.1,0-1.67-.39-1.67-1.15,0-.42.24-1.43.62-3.04l.81-3.32c.05-.17.08-.32.12-.49-1.38,1.53-2.85,2.91-4.43,4.09-2.62,1.95-4.85,2.92-6.74,2.92-2.37,0-3.59-1.6-3.57-4.77,0-.68.07-1.6.11-2.7-1.42,2.36-3.14,4.32-5.24,5.96-2.07,1.62-3.87,2.43-5.4,2.43-1.18,0-2.12-.42-2.82-1.24-.67-.82-1.03-1.96-1.03-3.32,0-.42.03-.83.08-1.23-1.12.94-2.32,1.81-3.62,2.58-3.46,2.12-6.74,3.15-9.81,3.15-2,0-3.57-.5-4.71-1.52-1.15-1.01-1.73-2.43-1.73-4.19,0-2.59,1.05-4.77,3.15-6.58,2.08-1.79,4.62-2.7,7.55-2.7,1.43,0,2.59.29,3.41.85.88.58,1.29,1.36,1.29,2.31,0,1.59-1.21,2.98-3.56,4.18-2.41,1.22-5.1,1.81-8.22,1.81,0,2.56,1.37,3.85,4.08,3.89,2.41,0,5.01-.88,7.83-2.69,1.9-1.18,3.66-2.64,5.31-4.32.51-1,1.2-1.95,2.09-2.83,2.1-2.12,4.5-3.17,7.26-3.17,1.68.02,3.46.43,5.41,1.27.3-.83,1.47-1.21,3.5-1.21h.65c-.63.78-1.13,1.82-1.44,3.17l-.28,1.11c-.34,1.26-.48,2.71-.48,4.4,0,1.94.54,2.89,1.66,2.89,1.18,0,2.79-.79,4.89-2.37,1.81-1.42,3.62-3.19,5.42-5.29.03-.28.05-.53.05-.75,0-.52-.18-.96-.54-1.31,1.19-.29,2.09-.46,2.81-.46.76,0,1.18.44,1.18,1.2,0,.49-.3,1.76-.86,3.83l-.95,3.86c2.11-3.25,4.2-5.74,6.32-7.57,2.11-1.79,4.03-2.66,5.74-2.66.62,0,1.14.13,1.58.43.44.28.65.61.65,1h0ZM81.15,189.18c2.31-.06,4.29-.57,5.95-1.53,1.64-.95,2.47-2.05,2.47-3.28,0-1.14-.64-1.68-1.9-1.68-1.48-.02-2.87.6-4.15,1.89-1.25,1.24-2.05,2.82-2.37,4.6h0ZM112.44,184.85c-2.3-1.22-4.25-1.82-5.76-1.82-1.66,0-3.1.81-4.34,2.42-1.18,1.61-1.8,3.55-1.8,5.82,0,1.76.72,2.68,2.16,2.68,1.6,0,4.62-2.76,9.06-8.35.05-.05.29-.32.68-.75h0ZM185.07,190.84c-1.78,1.62-3.06,2.36-3.9,2.35-.98-.06-1.49-1.43-1.49-4.21v-1.57c0-2.05-.28-3.51-.9-4.45-.6-.91-1.6-1.4-2.95-1.4-3.41,0-6.78,2.96-10.09,8.86.22-.71.35-1.24.44-1.5.99-3.18,1.49-4.79,1.54-4.95l2.76-10.93c-1.85.65-3.76.97-5.7.97-1.43,0-2.65-.32-3.72-.99,0,2.02,1.07,3.05,3.21,3.05.75,0,1.51-.11,2.25-.31l-2.6,10.36c-4.96,5.78-9.34,8.67-13.09,8.67-1.47,0-2.68-.45-3.59-1.35-.9-.88-1.36-2.05-1.36-3.47,0-1.74.7-3.35,2.07-4.78,1.37-1.46,2.85-2.21,4.49-2.19,1.86,0,2.82.73,2.82,2.16,0,.17-.07.38-.17.57,2.06-.45,3.11-1.17,3.11-2.14,0-.61-.39-1.1-1.22-1.5-.78-.39-1.8-.59-3.04-.59-3.06,0-5.73.9-8.03,2.71-2.25,1.83-3.4,3.95-3.4,6.39,0,1.89.64,3.39,1.96,4.57,1.34,1.13,3.05,1.75,5.18,1.75,2.53,0,5.31-1.02,8.28-3.09,1.79-1.2,3.5-2.7,5.16-4.46l-.02.06c-.27,1.05-.43,1.61-.43,1.69-.7,2.45-1.06,3.95-1.06,4.42,0,.67.49,1.01,1.47,1.01.8,0,1.41-.1,1.92-.32-.18-.18-.32-.4-.32-.63.02-.65,1.28-2.79,3.81-6.42,2.54-3.57,4.61-5.31,6.22-5.31,1.16,0,1.72,1.31,1.71,3.98v1.16c0,2.34.29,3.99.88,4.99.6,1.05,1.56,1.55,2.92,1.55,1.46,0,3.3-.98,5.55-2.92,2.25-1.97,4.27-4.38,6.05-7.2l-1.38-.6c-1.82,2.4-3.6,4.41-5.36,5.99l.02.02ZM233.18,184.27c2.61,0,4.56-.11,5.81-.34-.53.92-1.14,1.51-1.82,1.68-.68.19-2.46.27-5.24.26h-4.93l-2.86,11.32c-.27,1.12-.41,2.09-.41,2.91,0,.5.14.97.44,1.42-1.11.28-1.92.42-2.52.42-.92,0-1.36-.41-1.36-1.21.02-.68.18-1.75.54-3.19l2.67-10.72c-1,.3-2.02.46-3.05.46-1.2,0-2.59-.18-4.15-.62.03.22.03.41.03.56,0,2.53-1.05,4.75-3.23,6.64-2.16,1.91-4.69,2.85-7.58,2.85-2.21-.02-4.02-.62-5.4-1.72-1.41-1.13-2.08-2.62-2.08-4.41,0-2.05.91-3.82,2.71-5.3,1.82-1.53,3.9-2.27,6.38-2.27.35.02.75.04,1.16.12-.26-.4-.4-.72-.4-1,0-.43.16-.84.53-1.24,2.72.17,4.92,1.31,6.67,3.36,1.43.75,2.91,1.21,4.42,1.39.22-.45.47-.77.76-.93.52-.32,1.6-.45,3.21-.45h.64l.53-2.16c.76-2.95,1.94-5.09,3.58-6.39,1.98-1.63,4.21-2.43,6.63-2.43.96,0,1.78.16,2.44.54.7.35,1.05.79,1.05,1.29s-.72,1.11-2.15,1.73c-.37-1.31-1.31-2-2.71-2-2.49-.02-4.29,2.13-5.37,6.49l-.75,2.92,5.79.02h.02ZM213,187.64c-.03-.76-.17-1.43-.44-2.12-.92-.22-1.74-.57-2.52-1.04-.56-.1-1.01-.14-1.41-.16-1.84,0-3.52.66-4.95,2.02-1.44,1.35-2.2,2.85-2.2,4.61,0,1.24.45,2.25,1.34,3.11.86.76,1.98,1.19,3.35,1.19,1.87,0,3.46-.74,4.79-2.24,1.34-1.5,2.02-3.31,2.04-5.37h0ZM252.74,176.92c-3.85-.02-6.15.15-6.88.43-.94.38-1.71,1.29-2.26,2.71,1.75-1.03,3.64-1.56,5.67-1.56l.46.02-1.61,6.51h-.58c-.82,0-1.43.14-1.84.42-.37.24-.84.85-1.47,1.8,1.04-.39,2.12-.59,3.21-.59h.25l-1.11,4.48c-.35,1.45-.51,2.41-.51,2.92,0,1.89,1.78,2.87,5.34,2.87.93,0,2.23-.1,3.93-.26,1.7-.2,2.92-.42,3.61-.6,1.14-.29,1.96-1.1,2.45-2.42-2.13.78-4.61,1.17-7.41,1.15-2.81,0-4.24-.56-4.24-1.75,0-.58.21-1.58.54-2.99l.87-3.41,3.39.04c2.13,0,3.5-.12,4.08-.33.61-.21,1.23-.91,2-2.02-1.41.48-3.31.7-5.68.7l-3.39-.02,1.62-6.51h5.35c2.21,0,3.7-.11,4.36-.32.66-.24,1.46-.9,2.32-2.01-1.93.5-4.46.75-7.55.74h-4.92ZM445,186.1c-2.15,3.23-4.98,5.9-8.42,8-3.47,2.11-6.77,3.12-9.84,3.11-1.99,0-3.55-.5-4.71-1.49-1.13-1-1.69-2.38-1.7-4.13-1.18,1.11-2.39,2.1-3.63,2.95-2.99,2.04-5.75,3.05-8.28,3.05-2.12-.03-3.87-.6-5.17-1.73-1.1-1-1.76-2.21-1.94-3.67-.67.76-1.32,1.44-1.94,2.02-1.91,1.74-3.65,2.61-5.18,2.61-1.39,0-2.37-.52-2.93-1.6-.58-1.09-.86-3-.84-5.65l-.04-1.14c0-1.46-.12-2.45-.35-3.07-.22-.56-.66-.86-1.2-.86-1.49-.02-3.8,2.31-7.02,6.94-.81,1.14-1.29,1.88-1.55,2.22-.83,1.14-1.24,2-1.24,2.51,0,.23.05.42.21.63-.66.23-1.21.32-1.65.32-1.12,0-1.67-.48-1.67-1.47,0-.28.14-1.56.45-3.81l.38-2.89c.03-.24.06-.46.08-.67-1.86,2.2-4.07,4.1-6.63,5.66-3.44,2.08-6.77,3.13-9.84,3.11-1.99,0-3.55-.49-4.71-1.52-.96-.84-1.49-2-1.64-3.4-.69.72-1.38,1.38-2.08,1.96-2.29,1.97-4.32,2.97-6.09,2.95-1.29,0-2.34-.38-3.11-1.2-.78-.81-1.19-1.85-1.19-3.12,0-.61.12-1.45.35-2.46-1.23,1.48-2.46,2.75-3.68,3.81-2.32,1.94-4.37,2.93-6.13,2.93-1.26,0-2.31-.42-3.11-1.2-.78-.8-1.16-1.84-1.16-3.12,0-.73.16-1.74.51-3.08l.02-.07c-1.58,1.62-3.37,3.05-5.39,4.27-3.47,2.11-6.74,3.15-9.84,3.15-1.99,0-3.55-.52-4.69-1.53-1.14-1-1.7-2.38-1.72-4.14-1.18,1.12-2.38,2.11-3.62,2.96-2.99,2.01-5.79,3.06-8.3,3.04-2.12,0-3.86-.58-5.18-1.72-1.21-1.08-1.88-2.48-1.96-4.19-.75.78-1.49,1.45-2.2,2.01-2.05,1.55-4.12,2.33-6.19,2.33-2.54,0-4.74-1.18-6.62-3.62-2.26,2.47-3.67,4.84-4.22,7.12-1.31-.66-1.98-1.29-1.98-2,0-1.32,1.74-3.46,5.23-6.38-.81-1.1-1.56-2.37-2.21-3.91-.74-1.53-1.05-2.63-1.05-3.32s1.09-1.27,3.31-1.51c-.08.17-.12.35-.12.47,0,1.65.84,3.78,2.54,6.43,2.85-2.64,4.28-4.73,4.28-6.31l-.02-.15c.13,0,.44,0,.9-.07h.2c1.19,0,1.8.27,1.8.77,0,1.3-2.13,3.58-6.35,6.97,1.65,2.03,3.38,3.09,5.24,3.1,2.48,0,5.09-1.52,7.82-4.59.51-1.51,1.52-2.9,3.04-4.12,2.29-1.8,4.96-2.72,8.04-2.68,1.24,0,2.23.18,3.04.54.8.41,1.19.9,1.19,1.48,0,.98-1.04,1.69-3.1,2.18.11-.23.16-.39.16-.61.02-1.43-.94-2.15-2.81-2.15-1.62,0-3.14.73-4.51,2.21-1.37,1.44-2.06,3.04-2.06,4.82,0,1.4.46,2.56,1.37,3.45.91.88,2.08,1.33,3.59,1.33,3.26,0,6.96-2.16,11.12-6.49.47-1.49,1.38-2.83,2.75-4,2.09-1.83,4.62-2.74,7.57-2.74,1.42,0,2.55.29,3.42.87.84.56,1.27,1.34,1.27,2.32,0,1.57-1.2,2.97-3.58,4.17-2.37,1.22-5.1,1.79-8.21,1.79,0,2.61,1.35,3.89,4.09,3.89,2.39.02,4.98-.88,7.85-2.69,2.52-1.59,4.81-3.66,6.93-6.13l2.43-9.75c-.43.05-.82.08-1.14.08-2.51,0-3.77-.89-3.77-2.61v-.29c1.29.6,2.82.89,4.46.9,1.65,0,3.11-.32,4.36-.95l-3.86,15.89c-.32,1.45-.5,2.43-.5,2.97,0,1.53.67,2.25,2.05,2.27,1.3,0,2.66-.6,3.98-1.81,1.21-1.09,3.12-3.25,5.69-6.47l2.46-9.93c-.42.04-.77.06-1.11.06-2.52,0-3.8-.85-3.8-2.56v-.31c1.31.59,2.84.88,4.48.88,1.64.06,3.11-.3,4.37-.94l-3.86,15.91c-.33,1.45-.51,2.4-.51,2.97,0,1.5.69,2.22,2.03,2.22,1.33.04,2.65-.57,4.01-1.77.78-.7,1.88-1.9,3.27-3.54.42-1.72,1.38-3.26,2.91-4.58,2.08-1.78,4.6-2.71,7.55-2.71,1.42.03,2.57.28,3.42.86.84.58,1.27,1.35,1.27,2.33,0,1.56-1.23,2.94-3.57,4.16-2.41,1.19-5.12,1.8-8.2,1.8-.01,2.58,1.34,3.87,4.09,3.88,2.36,0,4.96-.9,7.81-2.71,2.78-1.72,5.27-3.99,7.48-6.78-.09-.69-.34-1.26-.75-1.69.22-.03.61-.14,1.18-.29.68-.21,1.23-.3,1.64-.3.86,0,1.28.51,1.28,1.52,0,.51-.1,1.44-.27,2.69-.01.29-.04.57-.1.82l-.44,3.68c3.91-6.59,7.44-9.91,10.54-9.9,2.44,0,3.63,1.96,3.63,5.84l.06,1.59c0,1.83.1,3.13.32,3.85.23.69.68,1.04,1.31,1.06.94,0,2.01-.63,3.25-1.81.72-.72,1.71-1.88,2.97-3.47.49-1.59,1.52-3.02,3.13-4.29,2.29-1.84,4.94-2.73,8.01-2.73,1.24,0,2.28.19,3.03.6.82.38,1.2.86,1.2,1.47,0,.97-1.01,1.67-3.1,2.17.11-.2.17-.4.17-.62,0-1.43-.94-2.13-2.82-2.13-1.61,0-3.12.71-4.49,2.2-1.38,1.43-2.06,3.04-2.08,4.79,0,1.43.45,2.55,1.36,3.48.91.89,2.1,1.32,3.58,1.33,3.27,0,6.99-2.17,11.17-6.53.48-1.48,1.39-2.8,2.72-3.99,2.1-1.8,4.64-2.71,7.59-2.69,1.4,0,2.57.29,3.43.86.82.55,1.25,1.33,1.25,2.3,0,1.57-1.19,2.96-3.58,4.17-2.37,1.2-5.1,1.82-8.18,1.82-.03,2.57,1.33,3.87,4.08,3.87,2.34.03,4.98-.89,7.8-2.69,2.88-1.8,5.46-4.13,7.76-7.07l1.39.61v-.04ZM312.82,185.17c-1.28,1.25-2.08,2.81-2.39,4.62,2.32-.1,4.31-.61,5.95-1.57,1.68-.94,2.48-2.03,2.48-3.28,0-1.12-.62-1.69-1.85-1.7-1.51,0-2.92.67-4.19,1.94h0ZM360.08,185.28c-1.27,1.25-2.08,2.82-2.36,4.62,2.27-.08,4.27-.6,5.93-1.55,1.65-.93,2.47-2.04,2.47-3.3,0-1.12-.62-1.68-1.86-1.68-1.53,0-2.91.63-4.18,1.91h0ZM426.49,185.45c-1.31,1.26-2.08,2.8-2.4,4.61,2.32-.08,4.29-.58,5.94-1.53,1.65-.97,2.48-2.07,2.5-3.31,0-1.12-.65-1.69-1.9-1.69-1.49,0-2.89.63-4.14,1.92Z"/>
  <g>
    <path class="st2" d="M162.72,56.37h-11.28c3.84-7.93,9.44-14.77,16.34-19.88-2.74,6.11-4.48,12.86-5.06,19.88ZM226.09,120.51c-12.2,1.97-24.21-.7-34.42-6.81h-38.11c11.32,20.05,32.99,32,55.38,28.46,16.8-2.74,30.36-13.66,37.86-28.46h-2.44c-5.46,3.42-11.61,5.76-18.28,6.81h0Z"/>
    <path class="st1" d="M298.95,56.37h-44.61c-16.39-28.85-53.42-39.96-83.59-24.66-10.59,5.31-18.94,13.18-24.71,22.4,6.25-18.91,19.85-35.55,39.36-45.36,39.24-19.83,87.53-4.79,107.78,33.54,2.44,4.6,4.35,9.3,5.76,14.08h.01ZM228.32,140.64c-15.83,7.98-33.52,8.74-49.13,3.49,23.24,14.45,53.45,16.73,79.64,3.52,15.47-7.79,27.22-19.83,34.55-33.94h-37.79c-5.76,11.17-15.04,20.71-27.27,26.93h0Z"/>
  </g>
  <path class="st0" d="M153.89,95.06c-.08,1.01-.1,2.11-.1,3.27v6.11c0,2.15.06,3.37.23,3.59.17.28.68.41,1.52.41h.95v.67c-1.58-.03-2.81-.08-3.7-.08-.76,0-2.13.05-4.15.08v-.67h1.19c.54,0,.91-.03,1.05-.14.16-.13.27-.36.31-.7s.11-1.37.15-3.09v-5.73l-.04-2.2c0-.92-.14-1.5-.37-1.68-.22-.23-.75-.32-1.63-.32h-.64v-.71c1.1.03,2.45.04,4.15.04.99,0,2.08-.01,3.3-.04.82-.03,1.39-.07,1.79-.07,2.13,0,3.69.32,4.63.96.97.62,1.45,1.47,1.45,2.56,0,.75-.27,1.5-.85,2.25-.54.69-1.35,1.28-2.35,1.72-1.02.44-2.06.66-3.26.66-.52,0-1.15-.09-1.96-.2l-.26-.8c.82.13,1.43.24,1.95.24,1.19,0,2.16-.31,2.92-.91.69-.59,1.04-1.41,1.04-2.44s-.41-1.78-1.15-2.36c-.74-.55-1.86-.84-3.37-.84-.82,0-1.79.12-2.78.41h-.02ZM169.06,100.8l1.73-1.22c.39-.31.75-.52,1.17-.65.38-.11.84-.14,1.38-.14.99,0,1.83.14,2.55.46.69.34,1.19.72,1.47,1.22.28.49.4,1.32.4,2.52v3.19c0,.72,0,1.28.07,1.68.02.18.08.32.22.42.09.09.38.16.76.18l.99.08v.59c-.86-.03-1.68-.08-2.48-.08-.66,0-1.4.05-2.06.08.14-1.77.22-3.53.22-5.27,0-1.16-.08-1.95-.27-2.36-.18-.44-.47-.77-.95-.98-.48-.25-1.07-.37-1.76-.37s-1.38.12-1.98.41c-.6.29-1,.63-1.23.99-.14.24-.22.9-.22,1.89v1.86c0,1.7,0,2.66.13,2.83.14.19.46.3,1.05.33l1.16.08v.59c-1.37-.03-2.48-.08-3.31-.08s-1.99.05-3.39.08v-.59l.81-.08c.52-.07.87-.13.98-.21.16-.06.22-.21.24-.43.09-.41.12-1.27.12-2.61v-7.27c0-1.91-.07-2.99-.16-3.21-.1-.14-.46-.24-1.07-.24h-.92v-.62c1.35-.12,2.43-.26,3.24-.48l1.1-.31c.11,0,.17.11.17.26l-.02.41-.06,1.91c-.06,1.02-.07,1.74-.07,2.27v2.86h-.01ZM181.86,101.74v-1.47l1.41-.69c.67-.31,1.25-.52,1.71-.64.53-.12,1.02-.16,1.57-.16,1.24,0,2.2.22,2.94.66s1.17.99,1.32,1.69c.12.52.16,1.77.18,3.8.04,1.93.09,2.98.17,3.19.09.19.32.31.65.31h1.06v.69c-1.02-.03-1.73-.08-2.14-.08-.46,0-1.14.05-1.97.08v-1.87l-2.71,1.71c-.2.14-.48.26-.72.31-.23.07-.54.09-.95.09-1.15,0-1.99-.24-2.61-.68-.59-.47-.92-1.08-.92-1.88,0-.66.22-1.3.65-1.86.44-.55,1.06-.93,1.8-1.19.82-.26,2.65-.57,5.47-1.03-.02-.88-.23-1.53-.75-2.01-.57-.56-1.44-.87-2.51-.87-.42,0-.87.06-1.21.16-.36.08-.7.22-1.05.37-.24.51-.47,1.02-.67,1.48l-.72-.12h0ZM188.77,103.41c-2.41.41-3.95.82-4.6,1.17-.64.36-.97.96-.97,1.74,0,.54.17.95.57,1.27.34.32.82.46,1.42.46.67,0,1.29-.11,1.86-.39.61-.29,1.19-.77,1.71-1.35l-.02-2.39.02-.49v-.02ZM198.45,101.21c.31-.31.7-.65,1.12-1.07.48-.53.94-.9,1.35-1.09.43-.2.89-.27,1.35-.27s.8.04,1.07.11c.13.06.19.12.19.2v.13c-.13.57-.23,1.38-.25,2.44h-.6c-.2-.36-.41-.64-.69-.77-.29-.16-.65-.22-1-.22-.51,0-.97.14-1.43.42-.47.3-.73.69-.89,1.2-.14.51-.22,1.53-.22,3.06,0,.95.05,1.83.13,2.51.03.21.14.39.29.46.3.14.84.22,1.48.22h.78v.59c-1.35-.03-2.59-.08-3.82-.08s-2.32.05-3.43.08v-.59l1.23-.08c.45-.02.73-.08.85-.21.13-.11.17-.49.26-1.04.04-1.02.05-2.26.05-3.64,0-1.72-.04-2.73-.22-3.03-.12-.2-.49-.27-1.1-.27h-1.07v-.64c.8-.06,1.58-.16,2.24-.31.69-.14,1.25-.31,1.78-.5.11-.06.22-.07.31-.07.07,0,.11,0,.19.07.04.02.04.11.04.26v2.15-.02ZM209.13,100.7l1.75-1.27c.3-.24.62-.39.92-.49.42-.11.89-.16,1.33-.16,1.01,0,1.8.14,2.38.41.64.32,1.15.84,1.68,1.61l1.68-1.29c.29-.19.64-.39,1.07-.49.54-.18,1.08-.23,1.6-.23.79,0,1.5.14,2.12.44.66.3,1.12.69,1.45,1.16.29.48.46,1.14.46,1.97l-.05,4.2c0,.93.06,1.49.19,1.67.14.17.49.26,1.04.27l.99.04v.59l-.67-.03c-.99,0-1.68-.06-2.05-.06-.57,0-1.2.05-1.93.08.07-1.3.14-2.85.14-4.62,0-1.52-.08-2.48-.25-2.93-.14-.49-.44-.87-.87-1.12-.42-.24-1-.41-1.7-.41s-1.4.18-1.94.52c-.55.32-.87.74-.99,1.2-.11.29-.14,1.57-.14,3.83,0,1.32,0,2.08.03,2.26.05.18.11.32.23.39.11.06.47.14,1.12.21l.84.08v.59c-1.5-.03-2.65-.08-3.35-.08-.59,0-1.68.05-3.34.08v-.59h.87c.52,0,.85-.08.99-.16.17-.16.27-.42.28-.89.05-1.18.12-2.4.12-3.66,0-1.12-.11-1.91-.29-2.33-.19-.47-.5-.79-.95-1.05-.44-.21-1.01-.38-1.62-.38-.68,0-1.29.17-1.83.49-.55.29-.93.68-1.13,1.11-.13.29-.2,1.13-.2,2.57s.02,2.64.07,3.37c0,.32.07.55.17.63.11.11.47.17,1.12.24l.84.08v.59c-1.04-.03-2.06-.08-3.04-.08-1.09,0-2.25.05-3.56.08v-.59h.97c.56,0,.91-.11,1.03-.39.1-.24.15-1.56.15-3.98v-3.18c-.04-.32-.14-.53-.24-.6-.12-.11-.51-.11-1.1-.11h-.8v-.64c1.27-.12,2.36-.31,3.29-.58l.95-.3c.15,0,.22.07.22.26v.37c-.05.41-.05.85-.03,1.32l-.02-.02ZM229.73,101.74v-1.47l1.42-.69c.66-.31,1.22-.52,1.69-.64.52-.12,1.02-.16,1.57-.16,1.24,0,2.18.22,2.94.66.74.44,1.18.99,1.31,1.69.11.52.18,1.77.22,3.8.02,1.93.05,2.98.14,3.19.08.19.27.31.69.31h1v.69c-.99-.03-1.71-.08-2.1-.08-.49,0-1.16.05-2,.08v-1.87l-2.73,1.71c-.21.14-.48.26-.67.31-.27.07-.57.09-.99.09-1.13,0-1.99-.24-2.58-.68-.61-.47-.92-1.08-.92-1.88,0-.66.19-1.3.64-1.86.43-.55,1.01-.93,1.81-1.19.78-.26,2.61-.57,5.44-1.03,0-.88-.24-1.53-.74-2.01-.58-.56-1.4-.87-2.52-.87-.44,0-.85.06-1.2.16-.37.08-.71.22-1.02.37-.29.51-.49,1.02-.71,1.48l-.72-.12h.03ZM236.63,103.41c-2.4.41-3.95.82-4.6,1.17-.64.36-.98.96-.98,1.74,0,.54.19.95.57,1.27.35.32.84.46,1.45.46.65,0,1.28-.11,1.86-.39.59-.29,1.19-.77,1.7-1.35l-.04-2.39.04-.49v-.02ZM253.86,108.11c.85.02,1.67.02,2.51.02,1.65,0,2.96-.01,3.87-.09.66-.07,1.33-.18,2.03-.31l.8-2.53h.84c-.26,1.34-.42,2.61-.52,3.78-.82.11-1.9.14-3.27.14l-6.24-.09c-.84,0-2.16.05-3.94.08v-.51c.71-.24,1.12-.51,1.26-.8.11-.28.17-1.43.17-3.42v-5.87c0-2.13-.06-3.33-.17-3.59-.14-.23-.49-.35-1.06-.35h-1.42v-.71c2.06.06,3.46.11,4.14.11.89,0,2.13-.04,3.69-.11v.71h-1.65c-.47,0-.74.09-.89.32-.11.18-.16,1.1-.16,2.73v6.79l.03,3.03-.03.65v.02ZM269.4,100.7v4.2c0,1.14.04,1.77.1,2.11.09.34.27.55.55.72.25.17.55.26.99.26.25,0,.49-.04.73-.13.26-.1.44-.18.71-.32l.37.32-1.27,1.24c-.29.04-.54.14-.81.22-.27.02-.52.04-.77.04-.64,0-1.18-.1-1.6-.27-.46-.23-.79-.47-.98-.72-.22-.34-.32-.8-.32-1.43l.07-2.06v-4.08c-.71,0-1.38.04-2.08.08v-.46c.72-.21,1.43-.48,2.08-.74-.04-1.04-.07-2.13-.14-3.3,1-.38,1.75-.67,2.17-.89l.38.22c-.09.57-.12,1.86-.19,3.97,1.02,0,1.9,0,2.58-.07h1.04l-.16,1.07h-3.46v.02ZM284.42,99.43v-3.92c0-.43-.02-.74-.17-.84-.14-.12-.39-.17-.84-.17h-1.13v-.62c1.58-.07,3.03-.32,4.37-.79l.24.15c-.07.74-.09,1.59-.16,2.63l-.04,2.85-.04.9v6.42c0,1.2.04,1.85.14,1.99.1.21.51.34,1.12.39l.89.1v.59c-1.06-.03-2.04-.08-2.87-.08-.12,0-.7.05-1.67.08.08-.47.14-1.16.14-2.05-.72.46-1.67,1.1-2.82,1.97-.75.22-1.42.32-1.98.32-1.48,0-2.7-.46-3.68-1.37-1.04-.91-1.53-2.1-1.53-3.62,0-.95.19-1.78.58-2.44.39-.68.84-1.18,1.39-1.49.54-.27,1.36-.68,2.5-1.12.87-.37,1.67-.53,2.38-.53.48,0,1.02.04,1.55.14.55.09,1.06.26,1.61.51h.02ZM284.42,101.27c-.56-.55-1.22-.94-1.87-1.2-.64-.24-1.3-.37-2-.37-1.16,0-2.08.32-2.74,1.02-.74.67-1.07,1.68-1.07,2.99s.4,2.38,1.23,3.1c.74.84,1.72,1.18,2.87,1.18.7,0,1.35-.14,1.91-.46.61-.33,1.04-.76,1.31-1.24.24-.51.36-1.35.36-2.41,0,0,0-2.61,0-2.61ZM293.04,106.86c.46,0,.82.13,1.09.39.31.21.46.49.46.87,0,.33-.16.59-.46.87-.27.26-.64.37-1.09.37s-.77-.12-1.08-.37c-.31-.27-.45-.54-.45-.87,0-.38.14-.66.45-.87.31-.26.65-.39,1.08-.39ZM161.93,87.84c-5.01,0-8.84-1.17-11.49-3.52-2.66-2.39-3.99-5.64-3.99-9.77,0-2.88.64-5.36,1.95-7.36,1.27-2.02,3.04-3.6,5.36-4.7,2.26-1.09,5.23-1.63,8.83-1.63s6.26.53,8.46,1.58c2.21,1.04,3.88,2.47,5.05,4.34,1.23,1.85,1.81,4.1,1.81,6.82,0,2.89-.64,5.43-1.94,7.55-1.33,2.13-3.17,3.79-5.49,4.95-2.4,1.17-5.24,1.73-8.55,1.73h0ZM162.71,85.84c2.72,0,4.86-.95,6.49-2.83,1.62-1.82,2.42-4.65,2.42-8.41,0-4-.92-7-2.77-9.13-1.53-1.72-3.8-2.56-6.95-2.56-2.89,0-5.17.87-6.78,2.66-1.58,1.78-2.35,4.53-2.35,8.24,0,2.65.38,4.92,1.25,6.8.89,1.84,2.01,3.18,3.35,4.01,1.36.79,3.17,1.22,5.34,1.22ZM181.11,87.49v-1.53c1.54-.12,2.41-.24,2.66-.36.12-.05.24-.18.31-.35.12-.31.22-1.32.27-3.04.07-2.66.1-4.79.1-6.34,0-2.06-.02-4.74-.07-7.93-.07-2.39-.21-3.85-.37-4.38-.06-.16-.17-.29-.34-.4-.22-.12-1.05-.23-2.55-.39v-1.52c2.83.09,4.61.15,5.44.15l10.19-.15c2.21,0,3.82.19,4.83.57,1.03.39,1.83,1.02,2.39,1.91.57.85.89,1.9.89,3.04,0,1.47-.46,2.79-1.41,3.93-.97,1.13-2.61,2.1-4.94,2.99l4.33,5.97,3.39,4.6c.63.77,1.11,1.3,1.4,1.44.36.16.83.27,1.55.27v1.38h-1.19c-3.44.03-5.59.06-6.62.15-1.2-1.75-2.94-4.26-5.33-7.56l-4.24-5.85c.13-.22.22-.41.33-.65.51.04.94.06,1.2.06,1.27,0,2.53-.46,3.8-1.39,1.22-.92,1.84-2.23,1.84-3.96,0-1.46-.46-2.64-1.45-3.44-.99-.84-2.44-1.27-4.4-1.27-.62,0-1.46.07-2.54.16l-.13,5.49-.16,6.97c0,1.6.07,3.61.21,6.09.07,1.82.18,2.88.3,3.11.07.16.21.3.44.4.31.14,1.22.22,2.75.31v1.53c-2.41-.12-4.57-.15-6.44-.15-1.99,0-4.16.03-6.42.15h-.02ZM211.14,87.49v-1.53c1.85-.09,2.89-.22,3.12-.41.24-.2.37-.68.44-1.52.11-1.63.15-4.7.15-9.21,0-1.76-.02-4.25-.09-7.55-.02-2.23-.06-3.45-.15-3.69-.08-.19-.21-.36-.42-.48-.29-.14-1.31-.27-3.06-.35v-1.52c2.81.09,4.9.15,6.39.15,2.53,0,4.83-.06,6.86-.15v1.52c-1.83.08-2.89.24-3.06.38-.28.19-.44.59-.52,1.2-.09,1.2-.14,3.63-.14,7.32,0,4.89.05,8.28.05,10.2.06,1.95.18,3.06.39,3.46.09.14.27.28.52.37.24.06,1.17.17,2.76.28v1.53l-2.38-.09c-1.52-.05-2.84-.06-4.04-.06,0,0-6.82.15-6.82.15ZM243.03,87.84c-5.02,0-8.84-1.17-11.5-3.52-2.67-2.39-4-5.64-4-9.77,0-2.88.65-5.36,1.96-7.36,1.26-2.02,3.05-3.6,5.33-4.7,2.3-1.09,5.25-1.63,8.86-1.63s6.26.53,8.48,1.58c2.19,1.04,3.85,2.47,5.06,4.34,1.18,1.85,1.77,4.1,1.77,6.82,0,2.89-.64,5.43-1.93,7.55-1.31,2.13-3.14,3.79-5.51,4.95-2.37,1.17-5.22,1.73-8.51,1.73h-.01ZM243.79,85.84c2.74,0,4.91-.95,6.5-2.83,1.61-1.82,2.42-4.65,2.42-8.41,0-4-.9-7-2.78-9.13-1.47-1.72-3.8-2.56-6.94-2.56-2.91,0-5.16.87-6.74,2.66-1.64,1.78-2.44,4.53-2.44,8.24,0,2.65.47,4.92,1.32,6.8.88,1.84,2,3.18,3.35,4.01,1.37.79,3.15,1.22,5.3,1.22h0ZM262.08,87.49v-1.53c1.64-.07,2.59-.17,2.87-.29.22-.09.35-.27.44-.5.16-.29.23-1.37.27-3.18.09-3,.11-5.28.11-6.81l-.06-7.94c0-2.08-.07-3.32-.2-3.66-.1-.18-.21-.32-.39-.4-.28-.16-1.28-.27-3.04-.43v-1.52c2.11.09,3.69.15,4.71.15,1.17,0,2.43-.06,3.85-.15,3.17,3.67,6.71,7.65,10.65,11.94,2.68,2.88,4.94,5.26,6.86,7.16v-7.49c0-2.78-.02-5.21-.09-7.27-.06-1.2-.14-1.97-.34-2.25-.06-.14-.21-.24-.45-.34-.19-.04-1.17-.16-2.85-.24v-1.52c1.45.09,2.93.15,4.33.15,1.96,0,3.77-.06,5.36-.15v1.52c-1.5.08-2.39.17-2.68.3-.2.05-.31.17-.42.27-.09.09-.18.26-.24.42-.12.3-.14,1.27-.14,2.89l-.07,7.47-.02,7.52c0,2.04.01,4.05.09,6.08l-.25.24c-1.65-.26-2.81-.44-3.49-.56-3.49-3.52-7.72-7.95-12.66-13.32-2.47-2.69-4.52-4.97-6.06-6.83v7.29c0,1.97.02,4.37.09,7.19.04,2.08.15,3.22.27,3.56.06.14.17.25.29.31.27.15,1.24.26,2.93.37v1.53c-2.17-.12-3.74-.15-4.67-.15-.81,0-2.48.03-5.02.15l.02.02Z"/>
</svg>