<?xml version="1.0" encoding="UTF-8"?>
<svg id="Layer_1" xmlns="http://www.w3.org/2000/svg" version="1.1" viewBox="0 0 156.37 156.37">
  <!-- Generator: Adobe Illustrator 30.1.0, SVG Export Plug-In . SVG Version: 2.1.1 Build 136)  -->
  <defs>
    <style>
      .st0 {
        fill: #231f20;
      }

      .st1 {
        fill: #0054a6;
      }

      .st2 {
        fill: #b3b3b3;
      }
    </style>
  </defs>
  <g>
    <path class="st2" d="M18.41,56.37H7.13c3.84-7.93,9.44-14.77,16.34-19.88-2.74,6.11-4.48,12.86-5.06,19.88ZM81.78,120.51c-12.2,1.97-24.21-.7-34.42-6.81H9.25c11.32,20.05,32.99,32,55.38,28.46,16.8-2.74,30.36-13.66,37.86-28.46h-2.44c-5.46,3.42-11.61,5.76-18.28,6.81Z"/>
    <path class="st1" d="M154.64,56.37h-44.61C93.63,27.52,56.61,16.41,26.44,31.71c-10.59,5.31-18.94,13.18-24.71,22.4C7.98,35.2,21.58,18.56,41.09,8.75c39.24-19.83,87.53-4.79,107.78,33.54,2.44,4.6,4.35,9.3,5.76,14.08ZM84,140.64c-15.83,7.98-33.52,8.74-49.13,3.49,23.24,14.45,53.45,16.73,79.64,3.52,15.47-7.79,27.22-19.83,34.55-33.94h-37.79c-5.76,11.17-15.04,20.71-27.27,26.93Z"/>
  </g>
  <path class="st0" d="M9.57,95.06c-.08,1.01-.1,2.11-.1,3.27v6.11c0,2.15.06,3.37.23,3.59.17.28.68.41,1.52.41h.95v.67c-1.58-.03-2.81-.08-3.7-.08-.76,0-2.13.05-4.15.08v-.67h1.19c.54,0,.91-.03,1.05-.14.16-.13.27-.36.31-.7.04-.34.11-1.37.15-3.09v-5.73l-.04-2.2c0-.92-.14-1.5-.37-1.68-.22-.23-.75-.32-1.63-.32h-.64v-.71c1.1.03,2.45.04,4.15.04.99,0,2.08-.01,3.3-.04.82-.03,1.39-.07,1.79-.07,2.13,0,3.69.32,4.63.96.97.62,1.45,1.47,1.45,2.56,0,.75-.27,1.5-.85,2.25-.54.69-1.35,1.28-2.35,1.72-1.02.44-2.06.66-3.26.66-.52,0-1.15-.09-1.96-.2l-.26-.8c.82.13,1.43.24,1.95.24,1.19,0,2.16-.31,2.92-.91.69-.59,1.04-1.41,1.04-2.44s-.41-1.78-1.15-2.36c-.74-.55-1.86-.84-3.37-.84-.82,0-1.79.12-2.78.41ZM24.75,100.8l1.73-1.22c.39-.31.75-.52,1.17-.65.38-.11.84-.14,1.38-.14.99,0,1.83.14,2.55.46.69.34,1.19.72,1.47,1.22.28.49.4,1.32.4,2.52v3.19c-.01.72,0,1.28.07,1.68.02.18.08.32.22.42.09.09.38.16.76.18l.99.08v.59c-.86-.03-1.68-.08-2.48-.08-.66,0-1.4.05-2.06.08.14-1.77.22-3.53.22-5.27,0-1.16-.08-1.95-.27-2.36-.18-.44-.47-.77-.95-.98-.48-.25-1.07-.37-1.76-.37s-1.38.12-1.98.41c-.6.29-1,.63-1.23.99-.14.24-.22.9-.22,1.89v1.86c0,1.7.01,2.66.13,2.83.14.19.46.3,1.05.33l1.16.08v.59c-1.37-.03-2.48-.08-3.31-.08s-1.99.05-3.39.08v-.59l.81-.08c.52-.07.87-.13.98-.21.16-.06.22-.21.24-.43.09-.41.12-1.27.12-2.61v-7.27c0-1.91-.07-2.99-.16-3.21-.1-.14-.46-.24-1.07-.24h-.92v-.62c1.35-.12,2.43-.26,3.24-.48l1.1-.31c.11,0,.17.11.17.26l-.02.41-.06,1.91c-.06,1.02-.07,1.74-.07,2.27v2.86ZM37.55,101.74v-.75s0-.72,0-.72l1.41-.69c.67-.31,1.25-.52,1.71-.64.53-.12,1.02-.16,1.57-.16,1.24,0,2.2.22,2.94.66.74.44,1.17.99,1.32,1.69.12.52.16,1.77.18,3.8.04,1.93.09,2.98.17,3.19.09.19.32.31.65.31h1.06v.69c-1.02-.03-1.73-.08-2.14-.08-.46,0-1.14.05-1.97.08v-1.87l-2.71,1.71c-.2.14-.48.26-.72.31-.23.07-.54.09-.95.09-1.15,0-1.99-.24-2.61-.68-.59-.47-.92-1.08-.92-1.88,0-.66.22-1.3.65-1.86.44-.55,1.06-.93,1.8-1.19.82-.26,2.65-.57,5.47-1.03-.02-.88-.23-1.53-.75-2.01-.57-.56-1.44-.87-2.51-.87-.42,0-.87.06-1.21.16-.36.08-.7.22-1.05.37-.24.51-.47,1.02-.67,1.48l-.72-.12ZM44.45,103.41c-2.41.41-3.95.82-4.6,1.17-.64.36-.97.96-.97,1.74,0,.54.17.95.57,1.27.34.32.82.46,1.42.46.67,0,1.29-.11,1.86-.39.61-.29,1.19-.77,1.71-1.35l-.02-2.39.02-.49ZM54.14,101.21c.31-.31.7-.65,1.12-1.07.48-.53.94-.9,1.35-1.09.43-.2.89-.27,1.35-.27s.8.04,1.07.11c.13.06.19.12.19.2v.13c-.13.57-.23,1.38-.25,2.44h-.6c-.2-.36-.41-.64-.69-.77-.29-.16-.65-.22-1-.22-.51,0-.97.14-1.43.42-.47.3-.73.69-.89,1.2-.14.51-.22,1.53-.22,3.06,0,.95.05,1.83.13,2.51.03.21.14.39.29.46.3.14.84.22,1.48.22h.78v.59c-1.35-.03-2.59-.08-3.82-.08s-2.32.05-3.43.08v-.59l1.23-.08c.45-.02.73-.08.85-.21.13-.11.17-.49.26-1.04.04-1.02.05-2.26.05-3.64,0-1.72-.04-2.73-.22-3.03-.12-.2-.49-.27-1.1-.27h-1.07v-.64c.8-.06,1.58-.16,2.24-.31.69-.14,1.25-.31,1.78-.5.11-.06.22-.07.31-.07.07,0,.11,0,.19.07.04.02.04.11.04.26v2.15ZM64.82,100.7l1.75-1.27c.3-.24.62-.39.92-.49.42-.11.89-.16,1.33-.16,1.01,0,1.8.14,2.38.41.64.32,1.15.84,1.68,1.61l1.68-1.29c.29-.19.64-.39,1.07-.49.54-.18,1.08-.23,1.6-.23.79,0,1.5.14,2.12.44.66.3,1.12.69,1.45,1.16.29.48.46,1.14.46,1.97l-.05,4.2c0,.93.06,1.49.19,1.67.14.17.49.26,1.04.27l.99.04v.59l-.67-.03c-.99,0-1.68-.06-2.05-.06-.57,0-1.2.05-1.93.08.07-1.3.14-2.85.14-4.62,0-1.52-.08-2.48-.25-2.93-.14-.49-.44-.87-.87-1.12-.42-.24-1-.41-1.7-.41s-1.4.18-1.94.52c-.55.32-.87.74-.99,1.2-.11.29-.14,1.57-.14,3.83,0,1.32,0,2.08.03,2.26.05.18.11.32.23.39.11.06.47.14,1.12.21l.84.08v.59c-1.5-.03-2.65-.08-3.35-.08-.59,0-1.68.05-3.34.08v-.59h.87c.52,0,.85-.08.99-.16.17-.16.27-.42.28-.89.05-1.18.12-2.4.12-3.66,0-1.12-.11-1.91-.29-2.33-.19-.47-.5-.79-.95-1.05-.44-.21-1.01-.38-1.62-.38-.68,0-1.29.17-1.83.49-.55.29-.93.68-1.13,1.11-.13.29-.2,1.13-.2,2.57,0,1.51.02,2.64.07,3.37,0,.32.07.55.17.63.11.11.47.17,1.12.24l.84.08v.59c-1.04-.03-2.06-.08-3.04-.08-1.09,0-2.25.05-3.56.08v-.59h.97c.56,0,.91-.11,1.03-.39.1-.24.15-1.56.15-3.98,0-1.8,0-2.86,0-3.18-.04-.32-.14-.53-.24-.6-.12-.11-.51-.11-1.1-.11h-.8v-.64c1.27-.12,2.36-.31,3.29-.58l.95-.3c.15,0,.22.07.22.26v.37c-.05.41-.05.85-.03,1.32ZM85.41,101.74v-1.47l1.42-.69c.66-.31,1.22-.52,1.69-.64.52-.12,1.02-.16,1.57-.16,1.24,0,2.18.22,2.94.66.74.44,1.18.99,1.31,1.69.11.52.18,1.77.22,3.8.02,1.93.05,2.98.14,3.19.08.19.27.31.69.31h1v.69c-.99-.03-1.71-.08-2.1-.08-.49,0-1.16.05-2,.08v-1.87l-2.73,1.71c-.21.14-.48.26-.67.31-.27.07-.57.09-.99.09-1.13,0-1.99-.24-2.58-.68-.61-.47-.92-1.08-.92-1.88,0-.66.19-1.3.64-1.86.43-.55,1.01-.93,1.81-1.19.78-.26,2.61-.57,5.44-1.03-.01-.88-.24-1.53-.74-2.01-.58-.56-1.4-.87-2.52-.87-.44,0-.85.06-1.2.16-.37.08-.71.22-1.02.37-.29.51-.49,1.02-.71,1.48l-.72-.12ZM92.31,103.41c-2.4.41-3.95.82-4.6,1.17-.64.36-.98.96-.98,1.74,0,.54.19.95.57,1.27.35.32.84.46,1.45.46.65,0,1.28-.11,1.86-.39.59-.29,1.19-.77,1.7-1.35l-.04-2.39.04-.49ZM109.55,108.11c.85.02,1.67.02,2.51.02,1.65,0,2.96-.01,3.87-.09.66-.07,1.33-.18,2.03-.31l.8-2.53h.84c-.26,1.34-.42,2.61-.52,3.78-.82.11-1.9.14-3.27.14l-6.24-.09c-.84,0-2.16.05-3.94.08v-.51c.71-.24,1.12-.51,1.26-.8.11-.28.17-1.43.17-3.42v-5.87c0-2.13-.06-3.33-.17-3.59-.14-.23-.49-.35-1.06-.35h-1.42v-.71c2.06.06,3.46.11,4.14.11.89,0,2.13-.04,3.69-.11v.71h-1.65c-.47,0-.74.09-.89.32-.11.18-.16,1.1-.16,2.73v6.79l.03,3.03-.03.65ZM125.09,100.7v4.2c0,1.14.04,1.77.1,2.11.09.34.27.55.55.72.25.17.55.26.99.26.25,0,.49-.04.73-.13.26-.1.44-.18.71-.32l.37.32-1.27,1.24c-.29.04-.54.14-.81.22-.27.02-.52.04-.77.04-.64,0-1.18-.1-1.6-.27-.46-.23-.79-.47-.98-.72-.22-.34-.32-.8-.32-1.43l.07-2.06v-4.08c-.71,0-1.38.04-2.08.08v-.46c.72-.21,1.43-.48,2.08-.74-.04-1.04-.07-2.13-.14-3.3,1-.38,1.75-.67,2.17-.89l.38.22c-.09.57-.12,1.86-.19,3.97,1.02,0,1.9,0,2.58-.07h1.04s-.16,1.07-.16,1.07h-3.46ZM140.11,99.43v-3.92c0-.43-.02-.74-.17-.84-.14-.12-.39-.17-.84-.17h-1.13v-.62c1.58-.07,3.03-.32,4.37-.79l.24.15c-.07.74-.09,1.59-.16,2.63l-.04,2.85-.04.9v6.42c0,1.2.04,1.85.14,1.99.1.21.51.34,1.12.39l.89.1v.59c-1.06-.03-2.04-.08-2.87-.08-.12,0-.7.05-1.67.08.08-.47.14-1.16.14-2.05-.72.46-1.67,1.1-2.82,1.97-.75.22-1.42.32-1.98.32-1.48,0-2.7-.46-3.68-1.37-1.04-.91-1.53-2.1-1.53-3.62,0-.95.19-1.78.58-2.44.39-.68.84-1.18,1.39-1.49.54-.27,1.36-.68,2.5-1.12.87-.37,1.67-.53,2.38-.53.48,0,1.02.04,1.55.14.55.09,1.06.26,1.61.51ZM140.11,101.27c-.56-.55-1.22-.94-1.87-1.2-.64-.24-1.3-.37-2-.37-1.16,0-2.08.32-2.74,1.02-.74.67-1.07,1.68-1.07,2.99s.4,2.38,1.23,3.1c.74.84,1.72,1.18,2.87,1.18.7,0,1.35-.14,1.91-.46.61-.33,1.04-.76,1.31-1.24.24-.51.36-1.35.36-2.41v-2.61ZM148.72,106.86c.46,0,.82.13,1.09.39.31.21.46.49.46.87,0,.33-.16.59-.46.87-.27.26-.64.37-1.09.37-.43,0-.77-.12-1.08-.37-.31-.27-.45-.54-.45-.87,0-.38.14-.66.45-.87.31-.26.65-.39,1.08-.39ZM17.61,87.84c-5.01,0-8.84-1.17-11.49-3.52-2.66-2.39-3.99-5.64-3.99-9.77,0-2.88.64-5.36,1.95-7.36,1.27-2.02,3.04-3.6,5.36-4.7,2.26-1.09,5.23-1.63,8.83-1.63s6.26.53,8.46,1.58c2.21,1.04,3.88,2.47,5.05,4.34,1.23,1.85,1.81,4.1,1.81,6.82,0,2.89-.64,5.43-1.94,7.55-1.33,2.13-3.17,3.79-5.49,4.95-2.4,1.17-5.24,1.73-8.55,1.73ZM18.39,85.84c2.72,0,4.86-.95,6.49-2.83,1.62-1.82,2.42-4.65,2.42-8.41,0-4-.92-7-2.77-9.13-1.53-1.72-3.8-2.56-6.95-2.56-2.89,0-5.17.87-6.78,2.66-1.58,1.78-2.35,4.53-2.35,8.24,0,2.65.38,4.92,1.25,6.8.89,1.84,2.01,3.18,3.35,4.01,1.36.79,3.17,1.22,5.34,1.22ZM36.8,87.49v-1.53c1.54-.12,2.41-.24,2.66-.36.12-.05.24-.18.31-.35.12-.31.22-1.32.27-3.04.07-2.66.1-4.79.1-6.34,0-2.06-.02-4.74-.07-7.93-.07-2.39-.21-3.85-.37-4.38-.06-.16-.17-.29-.34-.4-.22-.12-1.05-.23-2.55-.39v-1.52c2.83.09,4.61.15,5.44.15l10.19-.15c2.21,0,3.82.19,4.83.57,1.03.39,1.83,1.02,2.39,1.91.57.85.89,1.9.89,3.04,0,1.47-.46,2.79-1.41,3.93-.97,1.13-2.61,2.1-4.94,2.99l4.33,5.97,3.39,4.6c.63.77,1.11,1.3,1.4,1.44.36.16.83.27,1.55.27v1.38h-1.19c-3.44.03-5.59.06-6.62.15-1.2-1.75-2.94-4.26-5.33-7.56l-4.24-5.85c.13-.22.22-.41.33-.65.51.04.94.06,1.2.06,1.27,0,2.53-.46,3.8-1.39,1.22-.92,1.84-2.23,1.84-3.96,0-1.46-.46-2.64-1.45-3.44-.99-.84-2.44-1.27-4.4-1.27-.62,0-1.46.07-2.54.16l-.13,5.49-.16,6.97c0,1.6.07,3.61.21,6.09.07,1.82.18,2.88.3,3.11.07.16.21.3.44.4.31.14,1.22.22,2.75.31v1.53c-2.41-.12-4.57-.15-6.44-.15-1.99,0-4.16.03-6.42.15ZM66.83,87.49v-1.53c1.85-.09,2.89-.22,3.12-.41.24-.2.37-.68.44-1.52.11-1.63.15-4.7.15-9.21,0-1.76-.02-4.25-.09-7.55-.02-2.23-.06-3.45-.15-3.69-.08-.19-.21-.36-.42-.48-.29-.14-1.31-.27-3.06-.35v-1.52c2.81.09,4.9.15,6.39.15,2.53,0,4.83-.06,6.86-.15v1.52c-1.83.08-2.89.24-3.06.38-.28.19-.44.59-.52,1.2-.09,1.2-.14,3.63-.14,7.32,0,4.89.05,8.28.05,10.2.06,1.95.18,3.06.39,3.46.09.14.27.28.52.37.24.06,1.17.17,2.76.28v1.53l-2.38-.09c-1.52-.05-2.84-.06-4.04-.06l-6.82.15ZM98.71,87.84c-5.02,0-8.84-1.17-11.5-3.52-2.67-2.39-4-5.64-4-9.77,0-2.88.65-5.36,1.96-7.36,1.26-2.02,3.05-3.6,5.33-4.7,2.3-1.09,5.25-1.63,8.86-1.63s6.26.53,8.48,1.58c2.19,1.04,3.85,2.47,5.06,4.34,1.18,1.85,1.77,4.1,1.77,6.82,0,2.89-.64,5.43-1.93,7.55-1.31,2.13-3.14,3.79-5.51,4.95-2.37,1.17-5.22,1.73-8.51,1.73ZM99.47,85.84c2.74,0,4.91-.95,6.5-2.83,1.61-1.82,2.42-4.65,2.42-8.41,0-4-.9-7-2.78-9.13-1.47-1.72-3.8-2.56-6.94-2.56-2.91,0-5.16.87-6.74,2.66-1.64,1.78-2.44,4.53-2.44,8.24,0,2.65.47,4.92,1.32,6.8.88,1.84,2,3.18,3.35,4.01,1.37.79,3.15,1.22,5.3,1.22ZM117.76,87.49v-1.53c1.64-.07,2.59-.17,2.87-.29.22-.09.35-.27.44-.5.16-.29.23-1.37.27-3.18.09-3,.11-5.28.11-6.81l-.06-7.94c0-2.08-.07-3.32-.2-3.66-.1-.18-.21-.32-.39-.4-.28-.16-1.28-.27-3.04-.43v-1.52c2.11.09,3.69.15,4.71.15,1.17,0,2.43-.06,3.85-.15,3.17,3.67,6.71,7.65,10.65,11.94,2.68,2.88,4.94,5.26,6.86,7.16v-7.49c0-2.78-.02-5.21-.09-7.27-.06-1.2-.14-1.97-.34-2.25-.06-.14-.21-.24-.45-.34-.19-.04-1.17-.16-2.85-.24v-1.52c1.45.09,2.93.15,4.33.15,1.96,0,3.77-.06,5.36-.15v1.52c-1.5.08-2.39.17-2.68.3-.2.05-.31.17-.42.27-.09.09-.18.26-.24.42-.12.3-.14,1.27-.14,2.89l-.07,7.47-.02,7.52c0,2.04.01,4.05.09,6.08l-.25.24c-1.65-.26-2.81-.44-3.49-.56-3.49-3.52-7.72-7.95-12.66-13.32-2.47-2.69-4.52-4.97-6.06-6.83v7.29c0,1.97.02,4.37.09,7.19.04,2.08.15,3.22.27,3.56.06.14.17.25.29.31.27.15,1.24.26,2.93.37v1.53c-2.17-.12-3.74-.15-4.67-.15-.81,0-2.48.03-5.02.15Z"/>
</svg>